<?xml version="1.0" encoding="UTF-8"?>
<svg width="9px" height="10px" viewBox="0 0 9 10" version="1.1" xmlns="http://www.w3.org/2000/svg" xmlns:xlink="http://www.w3.org/1999/xlink">
    <!-- Generator: sketchtool 49 (51002) - http://www.bohemiancoding.com/sketch -->
    <title>bell-black</title>
    <desc>Created with sketchtool.</desc>
    <defs></defs>
    <g id="Page" stroke="none" stroke-width="1" fill="none" fill-rule="evenodd">
        <g id="bell-black" fill="#000000" fill-rule="nonzero">
            <g id="bell">
                <path d="M8.71642025,7.14958984 C8.2694335,6.71501953 7.71428599,6.17417969 7.71428599,4.0625 C7.71428599,2.51183594 6.55250213,1.22521484 5.02909091,0.979882812 C5.10333529,0.875628977 5.1430304,0.751803301 5.14285657,0.625 C5.14285657,0.279824219 4.85503728,0 4.49999922,0 C4.14496115,0 3.85714186,0.279824219 3.85714186,0.625 C3.85714186,0.756835938 3.89922893,0.8790625 3.97090753,0.979882813 C2.44749631,1.22521484 1.28571244,2.51183594 1.28571244,4.0625 C1.28571244,6.17417969 0.730384135,6.71501953 0.28339738,7.14958984 C-0.322274694,7.7384375 0.106973215,8.75 0.965248052,8.75 L3.21428451,8.75 C3.21428451,9.44035156 3.78992309,10 4.49999922,10 C5.21007534,10 5.78571393,9.44035156 5.78571393,8.75 L8.03456958,8.75 C8.89113683,8.75 9.32331777,7.73962891 8.71642025,7.14958984 Z M4.49999922,9.21875 C4.5887593,9.21875 4.66071356,9.28870551 4.66071356,9.375 C4.66071356,9.46129449 4.5887593,9.53125 4.49999922,9.53125 C4.05690979,9.53125 3.69642752,9.18078125 3.69642752,8.75 L4.0178562,8.75 C4.0178562,9.00847656 4.23413752,9.21875 4.49999922,9.21875 Z" id="Shape"></path>
            </g>
        </g>
    </g>
</svg>