<?xml version="1.0" encoding="UTF-8"?>
<svg width="60px" height="86px" viewBox="0 0 60 86" version="1.1" xmlns="http://www.w3.org/2000/svg" xmlns:xlink="http://www.w3.org/1999/xlink">
    <!-- Generator: sketchtool 49 (51002) - http://www.bohemiancoding.com/sketch -->
    <title>s-bg</title>
    <desc>Created with sketchtool.</desc>
    <defs>
        <linearGradient x1="29.2621312%" y1="32.2334328%" x2="88.2349219%" y2="79.1578794%" id="linearGradient-1">
            <stop stop-color="#000000" stop-opacity="0" offset="0%"></stop>
            <stop stop-color="#000000" offset="100%"></stop>
        </linearGradient>
    </defs>
    <g id="Page" stroke="none" stroke-width="1" fill="none" fill-rule="evenodd">
        <g id="s-bg">
            <g id="Fill-1">
                <path d="M30.5202178,34.8278205 C15.0081386,28.4002041 13.6631881,26.7768068 13.6631881,21.3381904 C13.6631881,14.3073959 20.3606139,13.5481219 23.2394257,13.5481219 C26.8327622,13.5481219 30.7768706,14.454103 35.0457179,16.2533736 C39.3903852,18.0846016 40.2754602,3.41455515 35.0422254,1.83345918 C30.9862739,0.608051015 27.0612052,0.000176712329 23.2394257,0.000176712329 C9.55645545,0.000176712329 -0.000178217822,8.77453288 -0.000178217822,21.3381904 C-0.000178217822,36.8511767 11.0926931,41.4610123 25.1433861,47.2825055 L29.7431881,49.2504918 C30.6247723,49.6274781 31.5425941,49.8059575 32.4455644,49.8059575 C35.0903168,49.8059575 37.6079406,48.2744507 38.721802,45.713889 C40.2164554,42.2786014 38.6196238,38.2931493 35.1556634,36.8105329 L30.5202178,34.8278205 Z" fill="#D0194D"></path>
                <path d="M25.1436832,47.2826822 L29.7428911,49.2506685 C30.6250693,49.6270658 31.542297,49.8061342 32.4452673,49.8061342 C35.0900198,49.8061342 37.6076436,48.2746274 38.721505,45.7140658 C40.2161584,42.2787781 38.6199208,38.292737 35.1559604,36.8107096 L30.5205149,34.8274082 L30.4486337,34.7979562 C24.3304158,32.2627233 20.4310099,30.4785178 17.9466535,28.9081342 L11.1179406,40.6683397 C15.1064554,43.1205178 19.9195248,45.1179562 25.1436832,47.2826822" id="Fill-4" fill-opacity="0.200000018" fill="url(#linearGradient-1)" style="mix-blend-mode: multiply;"></path>
                <path d="M37.732099,38.0068164 C37.0851683,37.7099397 36.4239802,37.4071726 35.7503168,37.0949808 L33.8873465,36.2903507 C30.4251683,34.7994877 26.4027921,36.3734055 24.8998218,39.8051589 C23.3962574,43.2363233 24.9835842,47.2264877 28.4439802,48.7167616 L30.0574455,49.4118301 C30.7162574,49.7157753 31.3625941,50.0126521 31.9970495,50.3030493 C35.2572475,51.7980356 38.072495,53.0898027 40.2449703,54.4163233 C44.7313069,57.0552274 46.0002178,59.0691589 46.0002178,63.4522137 C46.0002178,68.8018849 41.1954653,72.2589671 33.7596238,72.2589671 C25.2396238,72.2589671 23.7895248,85.8069123 33.7596238,85.8069123 C48.7697228,85.8069123 59.6635842,76.4052274 59.6635842,63.4522137 C59.6635842,51.6372274 53.0986337,46.2333644 47.3600198,42.8499123 C44.5067525,41.1140082 41.2156634,39.6042959 37.732099,38.0068164 Z" id="Fill-6" fill="#D0194D"></path>
            </g>
        </g>
    </g>
</svg>