<?xml version="1.0" encoding="UTF-8"?>
<svg width="86px" height="16px" viewBox="0 0 86 16" version="1.1" xmlns="http://www.w3.org/2000/svg" xmlns:xlink="http://www.w3.org/1999/xlink">
    <!-- Generator: sketchtool 49 (51002) - http://www.bohemiancoding.com/sketch -->
    <title>stewardship-logo-white</title>
    <desc>Created with sketchtool.</desc>
    <defs></defs>
    <g id="Page" stroke="none" stroke-width="1" fill="none" fill-rule="evenodd">
        <g id="stewardship-logo-white" fill="#FFFFFF">
            <g id="Page-1">
                <path d="M13.2051911,7.81149454 C13.2945682,7.2461205 13.5218285,6.75739648 13.8447537,6.37030315 L13.8456519,6.37030315 C14.3509243,5.76478926 15.0919904,5.41036294 15.9051421,5.41036294 C16.7360345,5.41036294 17.4157942,5.75987854 17.8114786,6.36944911 L17.8114786,6.37030315 C18.0324511,6.71234591 18.165843,7.13680346 18.1833591,7.62723555 L13.2051911,7.81149454 Z M19.1869423,6.36859508 C18.6834665,5.1317326 17.5235857,4.44444444 15.9745329,4.44444444 C14.4358101,4.44444444 13.1191825,5.17101841 12.3859762,6.37030315 C11.9929866,7.01659742 11.7684211,7.79889746 11.7684211,8.67813096 C11.7684211,10.8781363 13.4342479,12.4444444 15.7647887,12.4444444 C16.8692018,12.4444444 17.9552006,12.0942883 18.9201585,11.3944031 L18.9895493,10.0774744 C17.8860344,10.9283111 16.8516857,11.3610955 15.8350777,11.3610955 C14.2393152,11.3610955 13.2752556,10.42699 13.117386,8.74474603 L19.2877722,8.54468731 L19.4456418,8.21097144 C19.4456418,8.0950356 19.4631579,7.99404545 19.4631579,7.89497688 C19.4631579,7.32106245 19.3665947,6.8099199 19.1878406,6.36859508 L19.1869423,6.36859508 Z" id="Fill-1"></path>
                <path d="M58.4864928,8.08834309 L57.8533245,7.84278284 C56.7340642,7.42102077 56.2653161,7.21159872 56.2653161,6.49354823 L56.2653161,6.48546763 C56.2706349,5.91129659 56.737533,5.49469711 57.5117651,5.49469711 C58.2145403,5.49469711 59.0266978,5.81051363 59.9480063,6.45830786 L60.2361465,5.24936132 C59.2977253,4.72412276 58.4134172,4.44444444 57.4747648,4.44444444 C56.0023824,4.44444444 55.0674301,5.23005768 54.9589728,6.48546763 C54.951804,6.56874263 54.949029,6.65291548 54.949029,6.73888402 C54.949029,7.93054706 55.6346915,8.45578563 56.987054,8.99942999 L57.7448673,9.29661625 C58.6842134,9.68246458 59.2623438,9.89278447 59.2623438,10.6810912 C59.2623438,11.2938696 58.7031761,11.7497497 57.8179429,11.7497497 C57.0060167,11.7497497 56.031289,11.3641258 54.949029,10.593327 L54.7684211,11.8900378 C55.6527292,12.5380565 56.7178765,12.8888889 57.7989803,12.8888889 C59.5687528,12.8888889 60.6526316,11.9418882 60.6526316,10.4889527 C60.6526316,9.33253 59.9653502,8.64859756 58.4864928,8.08834309" id="Fill-3"></path>
                <path d="M37.86435,10.7267682 C37.0381258,11.1472871 36.3497527,11.4169888 35.6432935,11.4169888 C34.1112717,11.4169888 33.0783812,10.339045 33.0783812,8.52017668 C33.0783812,7.58722453 33.3659937,6.82105591 33.8684333,6.2894199 L33.8693155,6.2894199 C34.3638149,5.76684587 35.0658629,5.47190008 35.9017918,5.47190008 C36.5039253,5.47190008 37.1587731,5.64040971 37.86435,5.97742896 L37.86435,6.2894199 L37.86435,10.7267682 Z M39.2238925,6.2894199 L39.2238925,4.67962434 L37.86435,4.81447519 C37.1069411,4.5792953 36.4176857,4.44444444 35.7465163,4.44444444 C34.1311223,4.44444444 32.8957561,5.13898029 32.2305419,6.2894199 C31.8756581,6.90369252 31.6842105,7.64785347 31.6842105,8.48651791 C31.6842105,10.8447897 33.21535,12.4276151 35.3675913,12.4276151 C36.2119016,12.4276151 37.0553296,12.1587764 37.9677935,11.6521687 C38.0194049,11.9218704 38.0710163,12.1915721 38.1744598,12.4444444 L39.3789474,12.09038 C39.29359,11.5695321 39.2238925,11.0301287 39.2238925,10.4579295 L39.2238925,6.2894199 Z" id="Fill-5"></path>
                <path d="M3.7180718,8.08834309 L3.08675347,7.84278284 C1.96841816,7.42102077 1.49851382,7.21159872 1.49851382,6.49354823 L1.49851382,6.48546763 C1.50313887,5.91129659 1.97096193,5.49469711 2.74334405,5.49469711 C3.4479693,5.49469711 4.2610518,5.81051363 5.18051029,6.45830786 L5.46957545,5.24936132 C4.53022929,4.72412276 3.64661489,4.44444444 2.70819373,4.44444444 C1.23396138,4.44444444 0.301784034,5.23005768 0.191476766,6.48546763 C0.18430795,6.56874263 0.180607916,6.65291548 0.180607916,6.73888402 C0.180607916,7.93054706 0.866270491,8.45578563 2.22025173,8.99942999 L2.97922123,9.29661625 C3.91764239,9.68246458 4.49484771,9.89278447 4.49484771,10.6810912 C4.49484771,11.2938696 3.93475504,11.7497497 3.05044689,11.7497497 C2.23852065,11.7497497 1.26379291,11.3641258 0.180607916,10.593327 L0,11.8900378 C0.885233165,12.5380565 1.95014924,12.8888889 3.03240922,12.8888889 C4.80195054,12.8888889 5.88421053,11.9418882 5.88421053,10.4889527 C5.88421053,9.33253 5.19854795,8.64859756 3.7180718,8.08834309" id="Fill-7"></path>
                <path d="M68.6471858,6.47499202 C68.3099712,5.2407827 67.4193333,4.61046785 66.1073996,4.61046785 C64.9082415,4.61046785 63.6944025,5.25121764 62.9298864,6.37796927 L62.9298864,0 L61.5578947,0.365000922 L61.5578947,6.47499202 L62.9654763,6.47499202 L63.9317429,6.47499202 C64.4627001,6.02229319 65.1377965,5.8062677 65.7946531,5.8062677 C66.4541789,5.8062677 66.8894882,6.02828773 67.1439562,6.47676818 C67.3385886,6.81934508 67.427341,7.29446793 67.427341,7.90258078 L67.427341,12.4444444 L68.8,12.4444444 L68.8,7.7298492 C68.8,7.25894473 68.74706,6.84088102 68.6471858,6.47499202 Z M61.5578947,12.4444444 L62.9298864,12.4444444 L62.9298864,8.89123596 C62.9298864,7.77580735 63.3409501,6.9780894 63.9317429,6.47499202 L61.5578947,6.47499202 L61.5578947,12.4444444 Z" id="Fill-9"></path>
                <path d="M76.7173388,11.5892085 C76.101976,11.5892085 75.4346201,11.416119 74.714596,11.0706048 L74.714596,6.35685121 L74.714596,6.19151856 C75.5577377,5.75934876 76.2768615,5.48231684 76.9977859,5.48231684 C77.8224711,5.48231684 78.501306,5.79059796 78.9566385,6.35596471 L78.9566385,6.35685121 C79.3665053,6.86237906 79.5976602,7.57490517 79.5976602,8.45786131 C79.5976602,10.3607382 78.4387343,11.5892085 76.7173388,11.5892085 Z M80.5384857,6.35507821 C79.9141197,5.15763543 78.7176058,4.44444444 77.1384595,4.44444444 C76.4535476,4.44444444 75.6095056,4.65210757 74.714596,5.08405575 L74.714596,4.70330307 L73.3263158,4.70330307 L73.3263158,6.35685121 L73.3263158,13.5889358 L73.3263158,13.5898223 L73.3263158,16 L74.714596,15.6374206 L74.714596,13.5898223 L74.0191054,13.5889358 L74.714596,13.5889358 L74.714596,12.2636151 C75.486388,12.5069599 76.1897563,12.6445894 76.8755686,12.6445894 C79.4049936,12.6445894 81.0210526,10.9666624 81.0210526,8.4924349 C81.0210526,7.67707454 80.8531445,6.95590504 80.5400612,6.35507821 L80.5384857,6.35507821 Z" id="Fill-11"></path>
                <polygon id="Fill-13" points="29.8044097 6.48778097 28.3138606 10.1547902 26.8517933 6.48778097 26.0384788 4.44444444 25.8795683 4.44444444 25.0601505 6.48778097 23.5863289 10.1547902 22.0835732 6.48778097 21.3975228 4.81338956 19.9157895 4.81338956 20.6176632 6.48778097 23.303771 12.8888889 23.6030563 12.8888889 25.8088158 7.51090795 28.0322069 12.8888889 28.3323964 12.8888889 30.9902485 6.48778097 31.6842105 4.81338956 30.4852611 4.81338956"></polygon>
                <polygon id="Fill-15" points="70.1578947 6.46822751 70.1578947 12.4444444 71.5157895 12.4444444 71.5157895 6.46822751 71.5157895 4.44444444 70.1578947 4.80985898"></polygon>
                <path d="M9.24598686,4.13177076 L9.24598686,2.22222222 L7.88321416,2.57685884 L7.88321416,4.13177076 L7.88321416,4.87043497 L6.33684211,4.87043497 L6.33684211,5.93239983 L7.88321416,5.93239983 L7.88321416,6.48283217 L7.88321416,9.45845167 C7.88321416,10.8759176 7.91769291,11.7362518 8.92619643,12.4444444 L10.8100293,12.4444444 C9.36386109,11.701458 9.24598686,10.8927742 9.24598686,9.2896697 L9.24598686,6.48283217 L9.24598686,5.93239983 L11.3157895,5.93239983 L11.3157895,4.87043497 L9.24598686,4.87043497 L9.24598686,4.13177076 Z" id="Fill-17"></path>
                <path d="M84.1337794,3.9756484 C84.0299283,3.6863203 83.7746975,3.48572541 83.3567807,3.31203959 L83.1147406,3.20951825 C82.6827955,3.03227421 82.5029405,2.94354099 82.5029405,2.64042476 C82.5029405,2.39713118 82.6827955,2.21988714 82.9813674,2.21988714 C83.2529296,2.21988714 83.5653203,2.35287577 83.9210521,2.62574709 L84.0316033,2.11669864 C83.6691714,1.89586634 83.3289335,1.77777778 82.968386,1.77777778 C82.3630766,1.77777778 81.995829,2.15405999 81.995829,2.7429461 C81.995829,3.24599005 82.2592255,3.46659995 82.7793184,3.69588302 L83.0730746,3.82108804 C83.1963977,3.87757485 83.3052739,3.92449893 83.3927935,3.97742752 L83.3953061,3.97742752 C83.5596671,4.07461151 83.6553525,4.18758513 83.6553525,4.4048592 C83.6553525,4.6619409 83.4401128,4.85475218 83.0992467,4.85475218 C82.7866466,4.85475218 82.4120708,4.6924082 81.995829,4.36749785 L81.9263158,4.91390765 C82.2665537,5.18655658 82.6754673,5.33333333 83.0933842,5.33333333 C83.7730225,5.33333333 84.1894737,4.93547939 84.1894737,4.32302004 C84.1894737,4.19358964 84.1723048,4.07905929 84.1337794,3.97742752 L84.1337794,3.9756484 Z" id="Fill-19"></path>
                <path d="M42.580381,4.67683779 L41.1894737,4.67683779 L41.1894737,6.2667068 L41.1894737,12 L42.6164851,12 L42.6164851,8.45376275 C42.6164851,7.37771758 42.8888448,6.68906572 43.5976118,6.26841244 L43.599417,6.26841244 C44.0841134,5.9844235 44.7734746,5.82622546 45.7157895,5.7586395 L45.7157895,4.44444444 C44.5354137,4.44444444 43.5138956,4.89345398 42.580381,5.79125985 L42.580381,4.67683779 Z" id="Fill-21"></path>
                <path d="M71.0561204,0.888888889 C70.5458505,0.888888889 70.1578947,1.38231034 70.1578947,2.00985869 C70.1578947,2.63667677 70.5613132,3.11111111 71.0561204,3.11111111 C71.5671832,3.11111111 71.9684211,2.63667677 71.9684211,2.00985869 C71.9684211,1.38231034 71.5671832,0.888888889 71.0561204,0.888888889" id="Fill-23"></path>
                <path d="M52.0215489,10.4069355 C51.2665231,11.0802087 50.4410582,11.4165217 49.598715,11.4165217 C48.2275161,11.4165217 47.1391988,10.3225876 47.1391988,8.52108024 C47.1391988,7.5882916 47.4326574,6.82139438 47.9444096,6.29049873 L47.9462099,6.29049873 C48.4516609,5.7662905 49.1661786,5.47312219 50.0197741,5.47312219 C50.635272,5.47312219 51.3025303,5.64160229 52.0215489,5.9787782 L52.0215489,6.29049873 L52.0215489,10.4069355 Z M52.0215489,3.94450512 L52.0215489,4.88398118 C51.4078513,4.56384743 50.7574714,4.39536734 50.0375526,4.39536734 C48.4638133,4.39536734 47.1364982,5.126023 46.3821476,6.29049873 L46.3814724,6.29049873 C45.9568126,6.94867128 45.7157895,7.74318111 45.7157895,8.62225458 C45.7157895,10.8610336 47.2798519,12.4444444 49.4414086,12.4444444 C50.3890729,12.4444444 51.2487446,12.1411371 52.1279952,11.5522118 L52.2157627,12.4444444 L53.4105263,12.0915207 L53.4105263,6.29049873 L53.4105263,3.94450512 L53.4105263,0 L52.0215489,0.354649517 L52.0215489,3.94450512 Z" id="Fill-25"></path>
                <path d="M85.4345928,3.98136183 C85.232973,4.96586286 84.3469008,5.70936273 83.2842105,5.70936273 C82.2206028,5.70936273 81.3336131,4.96586286 81.1338282,3.98226276 L81.1338282,3.98136183 C81.106074,3.84419387 81.0909353,3.70071934 81.0909353,3.55544294 C81.0909353,2.36507735 82.0728858,1.40174838 83.2842105,1.40174838 C84.4946177,1.40174838 85.4774858,2.36507735 85.4774858,3.55544294 C85.4774858,3.70071934 85.4623471,3.84329293 85.4345928,3.98136183 M86,3.55544294 C86,2.08263299 84.7840878,0.888888889 83.2842105,0.888888889 C81.7843332,0.888888889 80.5684211,2.08263299 80.5684211,3.55544294 C80.5684211,3.70071934 80.5801191,3.84329293 80.6025978,3.98226276 C80.8094932,5.25191098 81.9320501,6.22222222 83.2842105,6.22222222 C84.6354534,6.22222222 85.7570928,5.25191098 85.9658233,3.98226276 L85.8772849,3.98226276 L85.9658233,3.98226276 C85.9883019,3.84329293 86,3.70071934 86,3.55544294" id="Fill-27"></path>
            </g>
        </g>
    </g>
</svg>